<svg xmlns="http://www.w3.org/2000/svg" version="1.1" xmlns:xlink="http://www.w3.org/1999/xlink" xmlns:svgjs="http://svgjs.dev/svgjs" width="1440" height="560" preserveAspectRatio="none" viewBox="0 0 1440 560"><g mask="url(&quot;#SvgjsMask1000&quot;)" fill="none"><rect width="1440" height="560" x="0" y="0" fill="#0e2a47"></rect><path d="M-96.52 342.06L-96.52 342.06" stroke="#132e65" stroke-width="1.5"></path><path d="M-96.52 342.06L-101.92 495.24" stroke="#132e65" stroke-width="1.5"></path><path d="M-96.52 342.06L62.2 366.34" stroke="#132e65" stroke-width="1.5"></path><path d="M-96.52 342.06L99.54 542.47" stroke="#132e65" stroke-width="1.5"></path><path d="M-96.52 342.06L-93.48 653.65" stroke="#132e65" stroke-width="1.5"></path><path d="M-96.52 342.06L49.08 669.17" stroke="#132e65" stroke-width="1.5"></path><path d="M-96.52 342.06L261.29 390.19" stroke="#132e65" stroke-width="1.5"></path><path d="M-101.92 495.24L-101.92 495.24" stroke="#132e65" stroke-width="1.5"></path><path d="M-101.92 495.24L-93.48 653.65" stroke="#132e65" stroke-width="1.5"></path><path d="M-101.92 495.24L99.54 542.47" stroke="#132e65" stroke-width="1.5"></path><path d="M-93.48 653.65L-93.48 653.65" stroke="#132e65" stroke-width="1.5"></path><path d="M-93.48 653.65L49.08 669.17" stroke="#132e65" stroke-width="1.5"></path><path d="M-93.48 653.65L99.54 542.47" stroke="#132e65" stroke-width="1.5"></path><path d="M-93.48 653.65L62.2 366.34" stroke="#132e65" stroke-width="1.5"></path><path d="M-93.48 653.65L235.43 693.49" stroke="#132e65" stroke-width="1.5"></path><path d="M62.2 366.34L62.2 366.34" stroke="#132e65" stroke-width="1.5"></path><path d="M62.2 366.34L99.54 542.47" stroke="#132e65" stroke-width="1.5"></path><path d="M62.2 366.34L261.29 390.19" stroke="#132e65" stroke-width="1.5"></path><path d="M62.2 366.34L-101.92 495.24" stroke="#132e65" stroke-width="1.5"></path><path d="M99.54 542.47L99.54 542.47" stroke="#132e65" stroke-width="1.5"></path><path d="M99.54 542.47L49.08 669.17" stroke="#132e65" stroke-width="1.5"></path><path d="M99.54 542.47L251.21 543.71" stroke="#132e65" stroke-width="1.5"></path><path d="M99.54 542.47L235.43 693.49" stroke="#132e65" stroke-width="1.5"></path><path d="M49.08 669.17L49.08 669.17" stroke="#132e65" stroke-width="1.5"></path><path d="M49.08 669.17L235.43 693.49" stroke="#132e65" stroke-width="1.5"></path><path d="M49.08 669.17L-101.92 495.24" stroke="#132e65" stroke-width="1.5"></path><path d="M49.08 669.17L251.21 543.71" stroke="#132e65" stroke-width="1.5"></path><path d="M261.29 390.19L261.29 390.19" stroke="#132e65" stroke-width="1.5"></path><path d="M261.29 390.19L406.45 345.94" stroke="#132e65" stroke-width="1.5"></path><path d="M261.29 390.19L251.21 543.71" stroke="#132e65" stroke-width="1.5"></path><path d="M261.29 390.19L99.54 542.47" stroke="#132e65" stroke-width="1.5"></path><path d="M251.21 543.71L251.21 543.71" stroke="#132e65" stroke-width="1.5"></path><path d="M251.21 543.71L235.43 693.49" stroke="#132e65" stroke-width="1.5"></path><path d="M235.43 693.49L235.43 693.49" stroke="#132e65" stroke-width="1.5"></path><path d="M235.43 693.49L361.8 695.81" stroke="#132e65" stroke-width="1.5"></path><path d="M235.43 693.49L261.29 390.19" stroke="#132e65" stroke-width="1.5"></path><path d="M235.43 693.49L509.97 522.85" stroke="#132e65" stroke-width="1.5"></path><path d="M406.45 345.94L406.45 345.94" stroke="#132e65" stroke-width="1.5"></path><path d="M406.45 345.94L527.93 378.66" stroke="#132e65" stroke-width="1.5"></path><path d="M406.45 345.94L509.97 522.85" stroke="#132e65" stroke-width="1.5"></path><path d="M406.45 345.94L251.21 543.71" stroke="#132e65" stroke-width="1.5"></path><path d="M361.8 695.81L361.8 695.81" stroke="#132e65" stroke-width="1.5"></path><path d="M361.8 695.81L251.21 543.71" stroke="#132e65" stroke-width="1.5"></path><path d="M361.8 695.81L509.97 522.85" stroke="#132e65" stroke-width="1.5"></path><path d="M361.8 695.81L99.54 542.47" stroke="#132e65" stroke-width="1.5"></path><path d="M361.8 695.81L49.08 669.17" stroke="#132e65" stroke-width="1.5"></path><path d="M527.93 378.66L527.93 378.66" stroke="#132e65" stroke-width="1.5"></path><path d="M527.93 378.66L509.97 522.85" stroke="#132e65" stroke-width="1.5"></path><path d="M527.93 378.66L695.98 352.63" stroke="#132e65" stroke-width="1.5"></path><path d="M527.93 378.66L709.35 523.88" stroke="#132e65" stroke-width="1.5"></path><path d="M509.97 522.85L509.97 522.85" stroke="#132e65" stroke-width="1.5"></path><path d="M509.97 522.85L709.35 523.88" stroke="#132e65" stroke-width="1.5"></path><path d="M695.98 352.63L695.98 352.63" stroke="#132e65" stroke-width="1.5"></path><path d="M695.98 352.63L817.86 349.14" stroke="#132e65" stroke-width="1.5"></path><path d="M695.98 352.63L709.35 523.88" stroke="#132e65" stroke-width="1.5"></path><path d="M695.98 352.63L853.13 258.11" stroke="#132e65" stroke-width="1.5"></path><path d="M695.98 352.63L796.59 556.46" stroke="#132e65" stroke-width="1.5"></path><path d="M695.98 352.63L509.97 522.85" stroke="#132e65" stroke-width="1.5"></path><path d="M709.35 523.88L709.35 523.88" stroke="#132e65" stroke-width="1.5"></path><path d="M709.35 523.88L796.59 556.46" stroke="#132e65" stroke-width="1.5"></path><path d="M709.35 523.88L675.84 678.77" stroke="#132e65" stroke-width="1.5"></path><path d="M675.84 678.77L675.84 678.77" stroke="#132e65" stroke-width="1.5"></path><path d="M675.84 678.77L819.69 690.6" stroke="#132e65" stroke-width="1.5"></path><path d="M675.84 678.77L796.59 556.46" stroke="#132e65" stroke-width="1.5"></path><path d="M675.84 678.77L509.97 522.85" stroke="#132e65" stroke-width="1.5"></path><path d="M675.84 678.77L983.99 679.79" stroke="#132e65" stroke-width="1.5"></path><path d="M675.84 678.77L361.8 695.81" stroke="#132e65" stroke-width="1.5"></path><path d="M853.13 258.11L853.13 258.11" stroke="#132e65" stroke-width="1.5"></path><path d="M853.13 258.11L817.86 349.14" stroke="#132e65" stroke-width="1.5"></path><path d="M853.13 258.11L966.3 249.98" stroke="#132e65" stroke-width="1.5"></path><path d="M853.13 258.11L997.85 367.01" stroke="#132e65" stroke-width="1.5"></path><path d="M817.86 349.14L817.86 349.14" stroke="#132e65" stroke-width="1.5"></path><path d="M817.86 349.14L966.3 249.98" stroke="#132e65" stroke-width="1.5"></path><path d="M817.86 349.14L997.85 367.01" stroke="#132e65" stroke-width="1.5"></path><path d="M817.86 349.14L943.98 489.78" stroke="#132e65" stroke-width="1.5"></path><path d="M796.59 556.46L796.59 556.46" stroke="#132e65" stroke-width="1.5"></path><path d="M796.59 556.46L819.69 690.6" stroke="#132e65" stroke-width="1.5"></path><path d="M796.59 556.46L943.98 489.78" stroke="#132e65" stroke-width="1.5"></path><path d="M796.59 556.46L817.86 349.14" stroke="#132e65" stroke-width="1.5"></path><path d="M819.69 690.6L819.69 690.6" stroke="#132e65" stroke-width="1.5"></path><path d="M819.69 690.6L983.99 679.79" stroke="#132e65" stroke-width="1.5"></path><path d="M960.89 -52.83L960.89 -52.83" stroke="#132e65" stroke-width="1.5"></path><path d="M960.89 -52.83L1008.19 104.27" stroke="#132e65" stroke-width="1.5"></path><path d="M960.89 -52.83L1144.18 -88.97" stroke="#132e65" stroke-width="1.5"></path><path d="M960.89 -52.83L966.3 249.98" stroke="#132e65" stroke-width="1.5"></path><path d="M960.89 -52.83L1270.24 -106.39" stroke="#132e65" stroke-width="1.5"></path><path d="M960.89 -52.83L1102.2 241.12" stroke="#132e65" stroke-width="1.5"></path><path d="M960.89 -52.83L853.13 258.11" stroke="#132e65" stroke-width="1.5"></path><path d="M1008.19 104.27L1008.19 104.27" stroke="#132e65" stroke-width="1.5"></path><path d="M1008.19 104.27L966.3 249.98" stroke="#132e65" stroke-width="1.5"></path><path d="M966.3 249.98L966.3 249.98" stroke="#132e65" stroke-width="1.5"></path><path d="M966.3 249.98L997.85 367.01" stroke="#132e65" stroke-width="1.5"></path><path d="M966.3 249.98L1102.2 241.12" stroke="#132e65" stroke-width="1.5"></path><path d="M997.85 367.01L997.85 367.01" stroke="#132e65" stroke-width="1.5"></path><path d="M997.85 367.01L943.98 489.78" stroke="#132e65" stroke-width="1.5"></path><path d="M943.98 489.78L943.98 489.78" stroke="#132e65" stroke-width="1.5"></path><path d="M983.99 679.79L983.99 679.79" stroke="#132e65" stroke-width="1.5"></path><path d="M983.99 679.79L1155.9 671.85" stroke="#132e65" stroke-width="1.5"></path><path d="M983.99 679.79L943.98 489.78" stroke="#132e65" stroke-width="1.5"></path><path d="M983.99 679.79L796.59 556.46" stroke="#132e65" stroke-width="1.5"></path><path d="M1144.18 -88.97L1144.18 -88.97" stroke="#132e65" stroke-width="1.5"></path><path d="M1144.18 -88.97L1270.24 -106.39" stroke="#132e65" stroke-width="1.5"></path><path d="M1144.18 -88.97L1292.71 57.9" stroke="#132e65" stroke-width="1.5"></path><path d="M1144.18 -88.97L1008.19 104.27" stroke="#132e65" stroke-width="1.5"></path><path d="M1102.2 241.12L1102.2 241.12" stroke="#132e65" stroke-width="1.5"></path><path d="M1102.2 241.12L1240.64 209.73" stroke="#132e65" stroke-width="1.5"></path><path d="M1102.2 241.12L1148.12 388.96" stroke="#132e65" stroke-width="1.5"></path><path d="M1148.12 388.96L1148.12 388.96" stroke="#132e65" stroke-width="1.5"></path><path d="M1148.12 388.96L1141.1 496.86" stroke="#132e65" stroke-width="1.5"></path><path d="M1148.12 388.96L1271.77 391.34" stroke="#132e65" stroke-width="1.5"></path><path d="M1141.1 496.86L1141.1 496.86" stroke="#132e65" stroke-width="1.5"></path><path d="M1141.1 496.86L1246.02 554.7" stroke="#132e65" stroke-width="1.5"></path><path d="M1141.1 496.86L1271.77 391.34" stroke="#132e65" stroke-width="1.5"></path><path d="M1141.1 496.86L1155.9 671.85" stroke="#132e65" stroke-width="1.5"></path><path d="M1141.1 496.86L997.85 367.01" stroke="#132e65" stroke-width="1.5"></path><path d="M1155.9 671.85L1155.9 671.85" stroke="#132e65" stroke-width="1.5"></path><path d="M1155.9 671.85L1261.49 656.22" stroke="#132e65" stroke-width="1.5"></path><path d="M1155.9 671.85L1246.02 554.7" stroke="#132e65" stroke-width="1.5"></path><path d="M1155.9 671.85L1421.13 696.08" stroke="#132e65" stroke-width="1.5"></path><path d="M1270.24 -106.39L1270.24 -106.39" stroke="#132e65" stroke-width="1.5"></path><path d="M1270.24 -106.39L1292.71 57.9" stroke="#132e65" stroke-width="1.5"></path><path d="M1270.24 -106.39L1446.52 -94.36" stroke="#132e65" stroke-width="1.5"></path><path d="M1270.24 -106.39L1410.68 81.06" stroke="#132e65" stroke-width="1.5"></path><path d="M1292.71 57.9L1292.71 57.9" stroke="#132e65" stroke-width="1.5"></path><path d="M1292.71 57.9L1410.68 81.06" stroke="#132e65" stroke-width="1.5"></path><path d="M1292.71 57.9L1240.64 209.73" stroke="#132e65" stroke-width="1.5"></path><path d="M1240.64 209.73L1240.64 209.73" stroke="#132e65" stroke-width="1.5"></path><path d="M1240.64 209.73L1406.43 223.21" stroke="#132e65" stroke-width="1.5"></path><path d="M1240.64 209.73L1271.77 391.34" stroke="#132e65" stroke-width="1.5"></path><path d="M1271.77 391.34L1271.77 391.34" stroke="#132e65" stroke-width="1.5"></path><path d="M1271.77 391.34L1420.16 374.07" stroke="#132e65" stroke-width="1.5"></path><path d="M1271.77 391.34L1246.02 554.7" stroke="#132e65" stroke-width="1.5"></path><path d="M1246.02 554.7L1246.02 554.7" stroke="#132e65" stroke-width="1.5"></path><path d="M1246.02 554.7L1261.49 656.22" stroke="#132e65" stroke-width="1.5"></path><path d="M1246.02 554.7L1148.12 388.96" stroke="#132e65" stroke-width="1.5"></path><path d="M1246.02 554.7L1421.13 696.08" stroke="#132e65" stroke-width="1.5"></path><path d="M1261.49 656.22L1261.49 656.22" stroke="#132e65" stroke-width="1.5"></path><path d="M1261.49 656.22L1421.13 696.08" stroke="#132e65" stroke-width="1.5"></path><path d="M1261.49 656.22L1141.1 496.86" stroke="#132e65" stroke-width="1.5"></path><path d="M1446.52 -94.36L1446.52 -94.36" stroke="#132e65" stroke-width="1.5"></path><path d="M1446.52 -94.36L1589.05 -97.66" stroke="#132e65" stroke-width="1.5"></path><path d="M1446.52 -94.36L1410.68 81.06" stroke="#132e65" stroke-width="1.5"></path><path d="M1446.52 -94.36L1292.71 57.9" stroke="#132e65" stroke-width="1.5"></path><path d="M1410.68 81.06L1410.68 81.06" stroke="#132e65" stroke-width="1.5"></path><path d="M1410.68 81.06L1406.43 223.21" stroke="#132e65" stroke-width="1.5"></path><path d="M1410.68 81.06L1594.35 90.16" stroke="#132e65" stroke-width="1.5"></path><path d="M1406.43 223.21L1406.43 223.21" stroke="#132e65" stroke-width="1.5"></path><path d="M1406.43 223.21L1420.16 374.07" stroke="#132e65" stroke-width="1.5"></path><path d="M1406.43 223.21L1292.71 57.9" stroke="#132e65" stroke-width="1.5"></path><path d="M1406.43 223.21L1271.77 391.34" stroke="#132e65" stroke-width="1.5"></path><path d="M1406.43 223.21L1594.35 90.16" stroke="#132e65" stroke-width="1.5"></path><path d="M1420.16 374.07L1420.16 374.07" stroke="#132e65" stroke-width="1.5"></path><path d="M1420.16 374.07L1602.64 370.84" stroke="#132e65" stroke-width="1.5"></path><path d="M1420.16 374.07L1240.64 209.73" stroke="#132e65" stroke-width="1.5"></path><path d="M1421.13 696.08L1421.13 696.08" stroke="#132e65" stroke-width="1.5"></path><path d="M1421.13 696.08L1561.97 681.46" stroke="#132e65" stroke-width="1.5"></path><path d="M1421.13 696.08L1420.16 374.07" stroke="#132e65" stroke-width="1.5"></path><path d="M1421.13 696.08L1271.77 391.34" stroke="#132e65" stroke-width="1.5"></path><path d="M1589.05 -97.66L1589.05 -97.66" stroke="#132e65" stroke-width="1.5"></path><path d="M1589.05 -97.66L1594.35 90.16" stroke="#132e65" stroke-width="1.5"></path><path d="M1589.05 -97.66L1410.68 81.06" stroke="#132e65" stroke-width="1.5"></path><path d="M1589.05 -97.66L1270.24 -106.39" stroke="#132e65" stroke-width="1.5"></path><path d="M1594.35 90.16L1594.35 90.16" stroke="#132e65" stroke-width="1.5"></path><path d="M1594.35 90.16L1446.52 -94.36" stroke="#132e65" stroke-width="1.5"></path><path d="M1594.35 90.16L1602.64 370.84" stroke="#132e65" stroke-width="1.5"></path><path d="M1594.35 90.16L1292.71 57.9" stroke="#132e65" stroke-width="1.5"></path><path d="M1602.64 370.84L1602.64 370.84" stroke="#132e65" stroke-width="1.5"></path><path d="M1602.64 370.84L1406.43 223.21" stroke="#132e65" stroke-width="1.5"></path><path d="M1602.64 370.84L1561.97 681.46" stroke="#132e65" stroke-width="1.5"></path><path d="M1561.97 681.46L1561.97 681.46" stroke="#132e65" stroke-width="1.5"></path><path d="M1561.97 681.46L1261.49 656.22" stroke="#132e65" stroke-width="1.5"></path><path d="M1561.97 681.46L1420.16 374.07" stroke="#132e65" stroke-width="1.5"></path><path d="M1561.97 681.46L1246.02 554.7" stroke="#132e65" stroke-width="1.5"></path><path d="M1561.97 681.46L1155.9 671.85" stroke="#132e65" stroke-width="1.5"></path><circle r="5" cx="-96.52" cy="342.06" fill="#132e65"></circle><circle r="5" cx="-101.92" cy="495.24" fill="#132e65"></circle><circle r="5" cx="-93.48" cy="653.65" fill="#132e65"></circle><circle r="5" cx="62.2" cy="366.34" fill="#132e65"></circle><circle r="5" cx="99.54" cy="542.47" fill="#132e65"></circle><circle r="5" cx="49.08" cy="669.17" fill="#132e65"></circle><circle r="5" cx="261.29" cy="390.19" fill="#132e65"></circle><circle r="5" cx="251.21" cy="543.71" fill="#132e65"></circle><circle r="5" cx="235.43" cy="693.49" fill="#132e65"></circle><circle r="5" cx="406.45" cy="345.94" fill="#132e65"></circle><circle r="5" cx="361.8" cy="695.81" fill="#132e65"></circle><circle r="5" cx="527.93" cy="378.66" fill="#132e65"></circle><circle r="5" cx="509.97" cy="522.85" fill="#132e65"></circle><circle r="5" cx="695.98" cy="352.63" fill="#132e65"></circle><circle r="5" cx="709.35" cy="523.88" fill="#132e65"></circle><circle r="5" cx="675.84" cy="678.77" fill="#132e65"></circle><circle r="5" cx="853.13" cy="258.11" fill="#132e65"></circle><circle r="5" cx="817.86" cy="349.14" fill="#132e65"></circle><circle r="5" cx="796.59" cy="556.46" fill="#132e65"></circle><circle r="5" cx="819.69" cy="690.6" fill="#132e65"></circle><circle r="5" cx="960.89" cy="-52.83" fill="#132e65"></circle><circle r="5" cx="1008.19" cy="104.27" fill="#132e65"></circle><circle r="5" cx="966.3" cy="249.98" fill="#132e65"></circle><circle r="5" cx="997.85" cy="367.01" fill="#132e65"></circle><circle r="5" cx="943.98" cy="489.78" fill="#132e65"></circle><circle r="5" cx="983.99" cy="679.79" fill="#132e65"></circle><circle r="5" cx="1144.18" cy="-88.97" fill="#132e65"></circle><circle r="5" cx="1102.2" cy="241.12" fill="#132e65"></circle><circle r="5" cx="1148.12" cy="388.96" fill="#132e65"></circle><circle r="5" cx="1141.1" cy="496.86" fill="#132e65"></circle><circle r="5" cx="1155.9" cy="671.85" fill="#132e65"></circle><circle r="5" cx="1270.24" cy="-106.39" fill="#132e65"></circle><circle r="5" cx="1292.71" cy="57.9" fill="#132e65"></circle><circle r="5" cx="1240.64" cy="209.73" fill="#132e65"></circle><circle r="5" cx="1271.77" cy="391.34" fill="#132e65"></circle><circle r="5" cx="1246.02" cy="554.7" fill="#132e65"></circle><circle r="5" cx="1261.49" cy="656.22" fill="#132e65"></circle><circle r="5" cx="1446.52" cy="-94.36" fill="#132e65"></circle><circle r="5" cx="1410.68" cy="81.06" fill="#132e65"></circle><circle r="5" cx="1406.43" cy="223.21" fill="#132e65"></circle><circle r="5" cx="1420.16" cy="374.07" fill="#132e65"></circle><circle r="5" cx="1421.13" cy="696.08" fill="#132e65"></circle><circle r="5" cx="1589.05" cy="-97.66" fill="#132e65"></circle><circle r="5" cx="1594.35" cy="90.16" fill="#132e65"></circle><circle r="5" cx="1602.64" cy="370.84" fill="#132e65"></circle><circle r="5" cx="1561.97" cy="681.46" fill="#132e65"></circle><path d="M-51.27 495.69L-51.27 495.69" stroke="hsl(228.5, 77.2%, 51.5%)" stroke-width="1.5"></path><path d="M-51.27 495.69L70.95 511.24" stroke="hsl(228.5, 77.2%, 51.5%)" stroke-width="1.5"></path><path d="M-51.27 495.69L-62.24 670.27" stroke="hsl(228.5, 77.2%, 51.5%)" stroke-width="1.5"></path><path d="M-51.27 495.69L109.51 660.8" stroke="hsl(228.5, 77.2%, 51.5%)" stroke-width="1.5"></path><path d="M-51.27 495.69L197.55 515.29" stroke="hsl(228.5, 77.2%, 51.5%)" stroke-width="1.5"></path><path d="M-51.27 495.69L224.62 648.79" stroke="hsl(228.5, 77.2%, 51.5%)" stroke-width="1.5"></path><path d="M-51.27 495.69L366.18 505.1" stroke="hsl(228.5, 77.2%, 51.5%)" stroke-width="1.5"></path><path d="M489.45 698.81L489.45 698.81" stroke="hsl(228.5, 77.2%, 51.5%)" stroke-width="1.5"></path><path d="M489.45 698.81L360.1 658.32" stroke="hsl(228.5, 77.2%, 51.5%)" stroke-width="1.5"></path><path d="M489.45 698.81L552.26 520.36" stroke="hsl(228.5, 77.2%, 51.5%)" stroke-width="1.5"></path><path d="M489.45 698.81L681.8 672.82" stroke="hsl(228.5, 77.2%, 51.5%)" stroke-width="1.5"></path><path d="M489.45 698.81L366.18 505.1" stroke="hsl(228.5, 77.2%, 51.5%)" stroke-width="1.5"></path><path d="M489.45 698.81L653.16 528.75" stroke="hsl(228.5, 77.2%, 51.5%)" stroke-width="1.5"></path><path d="M489.45 698.81L224.62 648.79" stroke="hsl(228.5, 77.2%, 51.5%)" stroke-width="1.5"></path><path d="M649.02 394.72L649.02 394.72" stroke="hsl(228.5, 77.2%, 51.5%)" stroke-width="1.5"></path><path d="M649.02 394.72L653.16 528.75" stroke="hsl(228.5, 77.2%, 51.5%)" stroke-width="1.5"></path><path d="M649.02 394.72L802.45 400.7" stroke="hsl(228.5, 77.2%, 51.5%)" stroke-width="1.5"></path><path d="M649.02 394.72L552.26 520.36" stroke="hsl(228.5, 77.2%, 51.5%)" stroke-width="1.5"></path><path d="M649.02 394.72L845.22 557.98" stroke="hsl(228.5, 77.2%, 51.5%)" stroke-width="1.5"></path><path d="M649.02 394.72L681.8 672.82" stroke="hsl(228.5, 77.2%, 51.5%)" stroke-width="1.5"></path><path d="M681.8 672.82L681.8 672.82" stroke="hsl(228.5, 77.2%, 51.5%)" stroke-width="1.5"></path><path d="M681.8 672.82L812.76 668.42" stroke="hsl(228.5, 77.2%, 51.5%)" stroke-width="1.5"></path><path d="M681.8 672.82L653.16 528.75" stroke="hsl(228.5, 77.2%, 51.5%)" stroke-width="1.5"></path><path d="M845.22 557.98L845.22 557.98" stroke="hsl(228.5, 77.2%, 51.5%)" stroke-width="1.5"></path><path d="M845.22 557.98L812.76 668.42" stroke="hsl(228.5, 77.2%, 51.5%)" stroke-width="1.5"></path><path d="M845.22 557.98L997.83 533.62" stroke="hsl(228.5, 77.2%, 51.5%)" stroke-width="1.5"></path><path d="M845.22 557.98L802.45 400.7" stroke="hsl(228.5, 77.2%, 51.5%)" stroke-width="1.5"></path><path d="M845.22 557.98L982.73 683.62" stroke="hsl(228.5, 77.2%, 51.5%)" stroke-width="1.5"></path><path d="M845.22 557.98L653.16 528.75" stroke="hsl(228.5, 77.2%, 51.5%)" stroke-width="1.5"></path><path d="M1149.73 529.11L1149.73 529.11" stroke="hsl(228.5, 77.2%, 51.5%)" stroke-width="1.5"></path><path d="M1149.73 529.11L1277.29 516.5" stroke="hsl(228.5, 77.2%, 51.5%)" stroke-width="1.5"></path><path d="M1149.73 529.11L1102.54 670.34" stroke="hsl(228.5, 77.2%, 51.5%)" stroke-width="1.5"></path><path d="M1285.19 63.79L1285.19 63.79" stroke="hsl(228.5, 77.2%, 51.5%)" stroke-width="1.5"></path><path d="M1285.19 63.79L1299.22 -45.64" stroke="hsl(228.5, 77.2%, 51.5%)" stroke-width="1.5"></path><path d="M1258.36 381.19L1258.36 381.19" stroke="hsl(228.5, 77.2%, 51.5%)" stroke-width="1.5"></path><path d="M1258.36 381.19L1276.97 250.27" stroke="hsl(228.5, 77.2%, 51.5%)" stroke-width="1.5"></path><path d="M1258.36 381.19L1277.29 516.5" stroke="hsl(228.5, 77.2%, 51.5%)" stroke-width="1.5"></path><path d="M1258.36 381.19L1089.42 360.06" stroke="hsl(228.5, 77.2%, 51.5%)" stroke-width="1.5"></path><path d="M1432.06 365.28L1432.06 365.28" stroke="hsl(228.5, 77.2%, 51.5%)" stroke-width="1.5"></path><path d="M1432.06 365.28L1602.58 357.16" stroke="hsl(228.5, 77.2%, 51.5%)" stroke-width="1.5"></path><path d="M1432.06 365.28L1258.36 381.19" stroke="hsl(228.5, 77.2%, 51.5%)" stroke-width="1.5"></path><path d="M1432.06 365.28L1276.97 250.27" stroke="hsl(228.5, 77.2%, 51.5%)" stroke-width="1.5"></path><path d="M1432.06 365.28L1401.45 557.81" stroke="hsl(228.5, 77.2%, 51.5%)" stroke-width="1.5"></path><path d="M1432.06 365.28L1603.44 248.24" stroke="hsl(228.5, 77.2%, 51.5%)" stroke-width="1.5"></path><path d="M1432.06 365.28L1277.29 516.5" stroke="hsl(228.5, 77.2%, 51.5%)" stroke-width="1.5"></path><path d="M1541.52 61.8L1541.52 61.8" stroke="hsl(228.5, 77.2%, 51.5%)" stroke-width="1.5"></path><path d="M1541.52 61.8L1429.79 88.62" stroke="hsl(228.5, 77.2%, 51.5%)" stroke-width="1.5"></path><path d="M1541.52 61.8L1547.19 -75.39" stroke="hsl(228.5, 77.2%, 51.5%)" stroke-width="1.5"></path><path d="M1541.52 61.8L1603.44 248.24" stroke="hsl(228.5, 77.2%, 51.5%)" stroke-width="1.5"></path><path d="M-62.24 670.27L-62.24 670.27" stroke="hsl(228.5, 77.2%, 51.5%)" stroke-width="1.5"></path><path d="M-62.24 670.27L109.51 660.8" stroke="hsl(228.5, 77.2%, 51.5%)" stroke-width="1.5"></path><path d="M-62.24 670.27L70.95 511.24" stroke="hsl(228.5, 77.2%, 51.5%)" stroke-width="1.5"></path><path d="M-62.24 670.27L224.62 648.79" stroke="hsl(228.5, 77.2%, 51.5%)" stroke-width="1.5"></path><path d="M70.95 511.24L70.95 511.24" stroke="hsl(228.5, 77.2%, 51.5%)" stroke-width="1.5"></path><path d="M70.95 511.24L197.55 515.29" stroke="hsl(228.5, 77.2%, 51.5%)" stroke-width="1.5"></path><path d="M70.95 511.24L109.51 660.8" stroke="hsl(228.5, 77.2%, 51.5%)" stroke-width="1.5"></path><path d="M109.51 660.8L109.51 660.8" stroke="hsl(228.5, 77.2%, 51.5%)" stroke-width="1.5"></path><path d="M109.51 660.8L224.62 648.79" stroke="hsl(228.5, 77.2%, 51.5%)" stroke-width="1.5"></path><path d="M109.51 660.8L197.55 515.29" stroke="hsl(228.5, 77.2%, 51.5%)" stroke-width="1.5"></path><path d="M197.55 515.29L197.55 515.29" stroke="hsl(228.5, 77.2%, 51.5%)" stroke-width="1.5"></path><path d="M197.55 515.29L224.62 648.79" stroke="hsl(228.5, 77.2%, 51.5%)" stroke-width="1.5"></path><path d="M197.55 515.29L366.18 505.1" stroke="hsl(228.5, 77.2%, 51.5%)" stroke-width="1.5"></path><path d="M224.62 648.79L224.62 648.79" stroke="hsl(228.5, 77.2%, 51.5%)" stroke-width="1.5"></path><path d="M224.62 648.79L360.1 658.32" stroke="hsl(228.5, 77.2%, 51.5%)" stroke-width="1.5"></path><path d="M366.18 505.1L366.18 505.1" stroke="hsl(228.5, 77.2%, 51.5%)" stroke-width="1.5"></path><path d="M366.18 505.1L360.1 658.32" stroke="hsl(228.5, 77.2%, 51.5%)" stroke-width="1.5"></path><path d="M366.18 505.1L552.26 520.36" stroke="hsl(228.5, 77.2%, 51.5%)" stroke-width="1.5"></path><path d="M366.18 505.1L224.62 648.79" stroke="hsl(228.5, 77.2%, 51.5%)" stroke-width="1.5"></path><path d="M360.1 658.32L360.1 658.32" stroke="hsl(228.5, 77.2%, 51.5%)" stroke-width="1.5"></path><path d="M360.1 658.32L197.55 515.29" stroke="hsl(228.5, 77.2%, 51.5%)" stroke-width="1.5"></path><path d="M360.1 658.32L552.26 520.36" stroke="hsl(228.5, 77.2%, 51.5%)" stroke-width="1.5"></path><path d="M360.1 658.32L109.51 660.8" stroke="hsl(228.5, 77.2%, 51.5%)" stroke-width="1.5"></path><path d="M552.26 520.36L552.26 520.36" stroke="hsl(228.5, 77.2%, 51.5%)" stroke-width="1.5"></path><path d="M552.26 520.36L653.16 528.75" stroke="hsl(228.5, 77.2%, 51.5%)" stroke-width="1.5"></path><path d="M552.26 520.36L681.8 672.82" stroke="hsl(228.5, 77.2%, 51.5%)" stroke-width="1.5"></path><path d="M653.16 528.75L653.16 528.75" stroke="hsl(228.5, 77.2%, 51.5%)" stroke-width="1.5"></path><path d="M653.16 528.75L802.45 400.7" stroke="hsl(228.5, 77.2%, 51.5%)" stroke-width="1.5"></path><path d="M802.45 400.7L802.45 400.7" stroke="hsl(228.5, 77.2%, 51.5%)" stroke-width="1.5"></path><path d="M802.45 400.7L954.5 357.98" stroke="hsl(228.5, 77.2%, 51.5%)" stroke-width="1.5"></path><path d="M802.45 400.7L997.83 533.62" stroke="hsl(228.5, 77.2%, 51.5%)" stroke-width="1.5"></path><path d="M812.76 668.42L812.76 668.42" stroke="hsl(228.5, 77.2%, 51.5%)" stroke-width="1.5"></path><path d="M954.5 357.98L954.5 357.98" stroke="hsl(228.5, 77.2%, 51.5%)" stroke-width="1.5"></path><path d="M954.5 357.98L1089.42 360.06" stroke="hsl(228.5, 77.2%, 51.5%)" stroke-width="1.5"></path><path d="M997.83 533.62L997.83 533.62" stroke="hsl(228.5, 77.2%, 51.5%)" stroke-width="1.5"></path><path d="M997.83 533.62L982.73 683.62" stroke="hsl(228.5, 77.2%, 51.5%)" stroke-width="1.5"></path><path d="M997.83 533.62L1149.73 529.11" stroke="hsl(228.5, 77.2%, 51.5%)" stroke-width="1.5"></path><path d="M997.83 533.62L1102.54 670.34" stroke="hsl(228.5, 77.2%, 51.5%)" stroke-width="1.5"></path><path d="M982.73 683.62L982.73 683.62" stroke="hsl(228.5, 77.2%, 51.5%)" stroke-width="1.5"></path><path d="M982.73 683.62L1102.54 670.34" stroke="hsl(228.5, 77.2%, 51.5%)" stroke-width="1.5"></path><path d="M982.73 683.62L812.76 668.42" stroke="hsl(228.5, 77.2%, 51.5%)" stroke-width="1.5"></path><path d="M1089.78 238.89L1089.78 238.89" stroke="hsl(228.5, 77.2%, 51.5%)" stroke-width="1.5"></path><path d="M1089.78 238.89L1089.42 360.06" stroke="hsl(228.5, 77.2%, 51.5%)" stroke-width="1.5"></path><path d="M1089.78 238.89L954.5 357.98" stroke="hsl(228.5, 77.2%, 51.5%)" stroke-width="1.5"></path><path d="M1089.42 360.06L1089.42 360.06" stroke="hsl(228.5, 77.2%, 51.5%)" stroke-width="1.5"></path><path d="M1089.42 360.06L1149.73 529.11" stroke="hsl(228.5, 77.2%, 51.5%)" stroke-width="1.5"></path><path d="M1089.42 360.06L997.83 533.62" stroke="hsl(228.5, 77.2%, 51.5%)" stroke-width="1.5"></path><path d="M1089.42 360.06L1276.97 250.27" stroke="hsl(228.5, 77.2%, 51.5%)" stroke-width="1.5"></path><path d="M1102.54 670.34L1102.54 670.34" stroke="hsl(228.5, 77.2%, 51.5%)" stroke-width="1.5"></path><path d="M1299.22 -45.64L1299.22 -45.64" stroke="hsl(228.5, 77.2%, 51.5%)" stroke-width="1.5"></path><path d="M1299.22 -45.64L1426.16 -100.97" stroke="hsl(228.5, 77.2%, 51.5%)" stroke-width="1.5"></path><path d="M1299.22 -45.64L1429.79 88.62" stroke="hsl(228.5, 77.2%, 51.5%)" stroke-width="1.5"></path><path d="M1299.22 -45.64L1547.19 -75.39" stroke="hsl(228.5, 77.2%, 51.5%)" stroke-width="1.5"></path><path d="M1299.22 -45.64L1541.52 61.8" stroke="hsl(228.5, 77.2%, 51.5%)" stroke-width="1.5"></path><path d="M1276.97 250.27L1276.97 250.27" stroke="hsl(228.5, 77.2%, 51.5%)" stroke-width="1.5"></path><path d="M1276.97 250.27L1285.19 63.79" stroke="hsl(228.5, 77.2%, 51.5%)" stroke-width="1.5"></path><path d="M1276.97 250.27L1089.78 238.89" stroke="hsl(228.5, 77.2%, 51.5%)" stroke-width="1.5"></path><path d="M1277.29 516.5L1277.29 516.5" stroke="hsl(228.5, 77.2%, 51.5%)" stroke-width="1.5"></path><path d="M1277.29 516.5L1401.45 557.81" stroke="hsl(228.5, 77.2%, 51.5%)" stroke-width="1.5"></path><path d="M1295.39 670.56L1295.39 670.56" stroke="hsl(228.5, 77.2%, 51.5%)" stroke-width="1.5"></path><path d="M1295.39 670.56L1401.45 557.81" stroke="hsl(228.5, 77.2%, 51.5%)" stroke-width="1.5"></path><path d="M1295.39 670.56L1277.29 516.5" stroke="hsl(228.5, 77.2%, 51.5%)" stroke-width="1.5"></path><path d="M1295.39 670.56L1460.79 688.02" stroke="hsl(228.5, 77.2%, 51.5%)" stroke-width="1.5"></path><path d="M1426.16 -100.97L1426.16 -100.97" stroke="hsl(228.5, 77.2%, 51.5%)" stroke-width="1.5"></path><path d="M1426.16 -100.97L1547.19 -75.39" stroke="hsl(228.5, 77.2%, 51.5%)" stroke-width="1.5"></path><path d="M1426.16 -100.97L1429.79 88.62" stroke="hsl(228.5, 77.2%, 51.5%)" stroke-width="1.5"></path><path d="M1429.79 88.62L1429.79 88.62" stroke="hsl(228.5, 77.2%, 51.5%)" stroke-width="1.5"></path><path d="M1429.79 88.62L1285.19 63.79" stroke="hsl(228.5, 77.2%, 51.5%)" stroke-width="1.5"></path><path d="M1429.79 88.62L1547.19 -75.39" stroke="hsl(228.5, 77.2%, 51.5%)" stroke-width="1.5"></path><path d="M1401.45 557.81L1401.45 557.81" stroke="hsl(228.5, 77.2%, 51.5%)" stroke-width="1.5"></path><path d="M1401.45 557.81L1460.79 688.02" stroke="hsl(228.5, 77.2%, 51.5%)" stroke-width="1.5"></path><path d="M1401.45 557.81L1608.56 495.72" stroke="hsl(228.5, 77.2%, 51.5%)" stroke-width="1.5"></path><path d="M1401.45 557.81L1258.36 381.19" stroke="hsl(228.5, 77.2%, 51.5%)" stroke-width="1.5"></path><path d="M1460.79 688.02L1460.79 688.02" stroke="hsl(228.5, 77.2%, 51.5%)" stroke-width="1.5"></path><path d="M1460.79 688.02L1608.56 495.72" stroke="hsl(228.5, 77.2%, 51.5%)" stroke-width="1.5"></path><path d="M1547.19 -75.39L1547.19 -75.39" stroke="hsl(228.5, 77.2%, 51.5%)" stroke-width="1.5"></path><path d="M1603.44 248.24L1603.44 248.24" stroke="hsl(228.5, 77.2%, 51.5%)" stroke-width="1.5"></path><path d="M1603.44 248.24L1602.58 357.16" stroke="hsl(228.5, 77.2%, 51.5%)" stroke-width="1.5"></path><path d="M1602.58 357.16L1602.58 357.16" stroke="hsl(228.5, 77.2%, 51.5%)" stroke-width="1.5"></path><path d="M1602.58 357.16L1608.56 495.72" stroke="hsl(228.5, 77.2%, 51.5%)" stroke-width="1.5"></path><path d="M1602.58 357.16L1401.45 557.81" stroke="hsl(228.5, 77.2%, 51.5%)" stroke-width="1.5"></path><path d="M1602.58 357.16L1541.52 61.8" stroke="hsl(228.5, 77.2%, 51.5%)" stroke-width="1.5"></path><path d="M1608.56 495.72L1608.56 495.72" stroke="hsl(228.5, 77.2%, 51.5%)" stroke-width="1.5"></path><path d="M1608.56 495.72L1432.06 365.28" stroke="hsl(228.5, 77.2%, 51.5%)" stroke-width="1.5"></path><circle r="25" cx="-51.27" cy="495.69" fill="url(&quot;#SvgjsRadialGradient1001&quot;)"></circle><circle r="25" cx="489.45" cy="698.81" fill="url(&quot;#SvgjsRadialGradient1001&quot;)"></circle><circle r="25" cx="649.02" cy="394.72" fill="url(&quot;#SvgjsRadialGradient1001&quot;)"></circle><circle r="25" cx="681.8" cy="672.82" fill="url(&quot;#SvgjsRadialGradient1001&quot;)"></circle><circle r="25" cx="845.22" cy="557.98" fill="url(&quot;#SvgjsRadialGradient1001&quot;)"></circle><circle r="25" cx="1149.73" cy="529.11" fill="url(&quot;#SvgjsRadialGradient1001&quot;)"></circle><circle r="25" cx="1285.19" cy="63.79" fill="url(&quot;#SvgjsRadialGradient1001&quot;)"></circle><circle r="25" cx="1258.36" cy="381.19" fill="url(&quot;#SvgjsRadialGradient1001&quot;)"></circle><circle r="25" cx="1432.06" cy="365.28" fill="url(&quot;#SvgjsRadialGradient1001&quot;)"></circle><circle r="25" cx="1541.52" cy="61.8" fill="url(&quot;#SvgjsRadialGradient1001&quot;)"></circle><circle r="5" cx="-62.24" cy="670.27" fill="#8b9ad9"></circle><circle r="5" cx="70.95" cy="511.24" fill="#8b9ad9"></circle><circle r="5" cx="109.51" cy="660.8" fill="#8b9ad9"></circle><circle r="5" cx="197.55" cy="515.29" fill="#8b9ad9"></circle><circle r="5" cx="224.62" cy="648.79" fill="#8b9ad9"></circle><circle r="5" cx="366.18" cy="505.1" fill="#8b9ad9"></circle><circle r="5" cx="360.1" cy="658.32" fill="#8b9ad9"></circle><circle r="5" cx="552.26" cy="520.36" fill="#8b9ad9"></circle><circle r="5" cx="653.16" cy="528.75" fill="#8b9ad9"></circle><circle r="5" cx="802.45" cy="400.7" fill="#8b9ad9"></circle><circle r="5" cx="812.76" cy="668.42" fill="#8b9ad9"></circle><circle r="5" cx="954.5" cy="357.98" fill="#8b9ad9"></circle><circle r="5" cx="997.83" cy="533.62" fill="#8b9ad9"></circle><circle r="5" cx="982.73" cy="683.62" fill="#8b9ad9"></circle><circle r="5" cx="1089.78" cy="238.89" fill="#8b9ad9"></circle><circle r="5" cx="1089.42" cy="360.06" fill="#8b9ad9"></circle><circle r="5" cx="1102.54" cy="670.34" fill="#8b9ad9"></circle><circle r="5" cx="1299.22" cy="-45.64" fill="#8b9ad9"></circle><circle r="5" cx="1276.97" cy="250.27" fill="#8b9ad9"></circle><circle r="5" cx="1277.29" cy="516.5" fill="#8b9ad9"></circle><circle r="5" cx="1295.39" cy="670.56" fill="#8b9ad9"></circle><circle r="5" cx="1426.16" cy="-100.97" fill="#8b9ad9"></circle><circle r="5" cx="1429.79" cy="88.62" fill="#8b9ad9"></circle><circle r="5" cx="1401.45" cy="557.81" fill="#8b9ad9"></circle><circle r="5" cx="1460.79" cy="688.02" fill="#8b9ad9"></circle><circle r="5" cx="1547.19" cy="-75.39" fill="#8b9ad9"></circle><circle r="5" cx="1603.44" cy="248.24" fill="#8b9ad9"></circle><circle r="5" cx="1602.58" cy="357.16" fill="#8b9ad9"></circle><circle r="5" cx="1608.56" cy="495.72" fill="#8b9ad9"></circle></g><defs><mask id="SvgjsMask1000"><rect width="1440" height="560" fill="#ffffff"></rect></mask><radialGradient id="SvgjsRadialGradient1001"><stop stop-color="#ffffff" offset="0.1"></stop><stop stop-color="#1735b3" offset="0.2"></stop><stop stop-color="rgba(23, 53, 179, 0)" offset="1"></stop></radialGradient></defs></svg>